<?xml version="1.0" standalone="no"?>
<!DOCTYPE svg PUBLIC "-//W3C//DTD SVG 20010904//EN"
 "http://www.w3.org/TR/2001/REC-SVG-20010904/DTD/svg10.dtd">
<svg version="1.0" xmlns="http://www.w3.org/2000/svg"
 width="1280.000000pt" height="726.000000pt" viewBox="0 0 1280.000000 726.000000"
 preserveAspectRatio="xMidYMid meet">
<metadata>
Created by potrace 1.15, written by Peter Selinger 2001-2017
</metadata>
<g transform="translate(0.000000,726.000000) scale(0.100000,-0.100000)"
fill="#ffc107" stroke="none">
<path d="M2420 7098 c-175 -229 -277 -345 -421 -480 -229 -216 -449 -375 -749
-543 -85 -48 -158 -90 -162 -93 -3 -4 -14 -92 -23 -197 -30 -347 -64 -547
-140 -810 -63 -222 -78 -302 -77 -441 0 -130 15 -226 63 -419 83 -328 86 -516
13 -742 -16 -48 -74 -179 -130 -292 l-100 -204 64 -91 c234 -330 270 -410 226
-502 -24 -51 -109 -122 -294 -246 -344 -231 -525 -393 -597 -534 -68 -130 -87
-215 -87 -374 1 -106 6 -152 23 -214 89 -329 338 -591 646 -681 366 -107 1250
-171 1795 -131 837 62 1534 214 2235 486 112 43 179 64 223 67 122 11 353 -32
1202 -223 634 -142 1142 -251 1510 -323 459 -89 629 -106 1105 -105 419 0 693
21 1195 89 618 85 903 142 1210 245 438 146 796 365 1105 674 297 298 440 554
516 926 28 134 33 381 11 485 -73 343 -277 618 -614 827 -315 196 -798 347
-1268 397 -212 23 -521 33 -1191 39 l-704 7 -134 195 c-584 848 -812 1149
-1144 1508 -456 494 -1077 947 -1692 1234 -368 172 -733 292 -1286 423 -332
78 -415 88 -484 56 -52 -24 -69 -43 -151 -176 -129 -208 -220 -273 -368 -263
-138 10 -271 72 -674 315 -278 167 -447 259 -499 269 -27 5 -35 -3 -153 -158z
m519 -378 c255 -153 499 -282 607 -321 74 -27 244 -37 328 -19 85 18 221 91
299 161 49 45 227 240 253 277 6 9 559 -116 724 -163 901 -258 1751 -802 2483
-1590 379 -408 707 -853 1027 -1395 73 -124 148 -244 167 -267 46 -58 80 -66
196 -47 353 57 1599 38 2072 -31 341 -51 726 -190 969 -352 509 -339 590 -911
209 -1488 -80 -120 -130 -182 -238 -294 -234 -242 -532 -435 -837 -540 -369
-126 -901 -234 -1488 -300 -1028 -116 -1626 -74 -2801 199 -414 96 -1229 295
-1229 300 0 3 53 25 118 49 101 38 130 45 212 48 84 4 122 -1 320 -42 1065
-220 1731 -306 2480 -321 766 -16 1440 70 2070 263 363 111 610 249 866 484
243 224 405 457 464 669 37 134 25 313 -29 434 -73 166 -236 323 -436 423
-432 216 -1218 333 -1895 283 -287 -21 -702 -82 -935 -136 -642 -150 -1130
-377 -2720 -1264 -741 -413 -967 -536 -1290 -701 -623 -318 -938 -436 -1440
-538 -776 -157 -2238 -142 -2731 28 -155 53 -286 163 -359 302 -49 94 -65 149
-71 254 -7 107 10 194 57 288 75 149 402 407 772 608 176 96 192 117 191 254
-1 139 -57 289 -223 595 l-52 95 65 125 c109 211 140 353 139 645 0 203 -15
331 -69 585 -50 232 -46 316 25 605 86 346 107 467 121 670 8 123 13 147 37
195 35 67 99 121 259 215 222 131 446 320 799 674 132 133 245 239 251 237 7
-3 125 -73 263 -156z m6760 -4724 c414 -68 627 -213 626 -426 -1 -98 -50 -173
-163 -252 -155 -107 -557 -239 -904 -297 -333 -56 -1167 -87 -1593 -61 -364
23 -574 67 -1030 217 l-170 56 340 168 c591 291 848 398 1130 469 232 59 565
110 915 139 176 15 728 6 849 -13z"/>
<path d="M2534 6421 c-234 -229 -408 -371 -714 -581 -74 -51 -155 -109 -180
-130 -57 -48 -90 -112 -90 -176 -1 -151 -39 -364 -105 -589 -71 -241 -77 -275
-72 -410 2 -66 16 -205 31 -310 59 -418 42 -830 -46 -1135 -45 -158 -40 -199
52 -420 88 -212 111 -277 156 -445 21 -77 45 -145 61 -167 108 -157 787 -400
1263 -452 348 -39 981 -36 1340 5 277 32 439 66 478 102 26 24 27 47 7 177
-28 180 -39 426 -27 552 16 153 36 226 111 395 l63 142 -91 270 c-243 726
-306 1262 -227 1931 33 279 34 343 3 374 -13 13 -41 26 -62 30 -178 34 -406
239 -450 404 -27 105 -55 122 -241 151 -242 37 -404 97 -820 300 l-280 138
-160 -156z m476 -424 c215 -98 377 -160 499 -188 156 -38 193 -62 309 -208 95
-121 172 -195 240 -233 90 -51 87 -37 84 -472 -6 -734 43 -1080 238 -1681 60
-186 61 -214 12 -360 -50 -148 -70 -264 -82 -470 -17 -285 -32 -380 -62 -396
-68 -37 -1056 -36 -1453 2 -309 28 -854 234 -855 323 -1 27 -61 208 -133 396
-76 199 -85 255 -59 373 12 51 24 110 27 132 4 22 10 378 14 790 9 840 6 807
91 1165 43 182 57 225 89 287 23 46 36 57 181 152 107 71 262 192 495 389 123
104 131 109 155 97 14 -7 108 -51 210 -98z"/>
<path d="M4315 6281 c-151 -68 -152 -278 -2 -392 105 -79 290 -149 394 -149
93 0 94 -7 63 -233 -77 -558 -73 -1080 11 -1557 45 -259 114 -472 237 -730
l59 -126 -24 -79 c-129 -430 -156 -566 -157 -790 0 -221 15 -269 139 -430 103
-132 218 -225 279 -225 35 0 140 55 301 155 130 81 623 414 630 425 3 4 10 96
16 205 27 451 -51 985 -235 1620 -120 414 -286 835 -443 1120 -282 513 -848
1101 -1144 1189 -66 20 -75 20 -124 -3z"/>
<path d="M4810 6288 c0 -26 130 -181 355 -423 494 -532 790 -1025 1010 -1680
122 -362 192 -676 270 -1200 70 -474 85 -554 110 -575 9 -8 73 17 226 88 187
86 1318 622 1328 628 3 3 -117 217 -267 474 -522 894 -1278 1740 -1944 2174
-339 221 -953 526 -1059 526 -16 0 -29 -5 -29 -12z"/>
<path d="M5470 6241 c0 -14 86 -75 340 -242 492 -324 783 -556 1159 -924 324
-317 606 -648 852 -1000 157 -223 207 -305 463 -750 26 -44 57 -94 70 -110
l24 -29 94 22 c53 13 100 28 107 35 33 33 -11 140 -179 432 -432 754 -1162
1514 -1980 2062 -257 172 -472 294 -795 450 -129 62 -155 71 -155 54z"/>
<path d="M1230 1746 c-428 -247 -579 -372 -646 -534 -27 -66 -31 -155 -10
-207 45 -106 218 -228 411 -288 145 -46 246 -52 810 -52 544 1 889 17 1235 60
698 87 1591 372 1908 608 86 64 194 159 188 164 -3 3 -35 -2 -73 -10 -86 -20
-253 -39 -603 -71 -403 -37 -565 -46 -850 -46 -486 0 -893 45 -1280 140 -277
69 -456 134 -728 267 -86 42 -159 78 -162 79 -3 1 -93 -48 -200 -110z"/>
</g>
</svg>
